<svg xmlns="http://www.w3.org/2000/svg" viewBox="0 0 200 200">
  <rect width="200" height="200" rx="46" fill="#f4ebe5"/>
  <g transform="translate(52 26) scale(0.79)" fill="#81a871">
    <path d="M0,129.58s42.21.88,41.77-52.76c0,0,5.28,50.12,43.08,50.12,0,0-44.4,3.52-42.42,54.08,0,0,7.25-52.32-42.42-51.44Z"/>
    <path d="M87.05,16.59s.44,41.33-38.69,43.96c0,0,37.37-2.64,38.69,43.52,0,0,1.76-43.96,34.29-43.74,0,0-36.05-.66-34.29-43.74Z"/>
    <path d="M8.78,26.38S31.64,28.58,32.08,0c0,0-3.52,25.06,19.78,24.18,0,0-22.42-.88-21.54,25.5,0,0,1.32-23.74-21.54-23.3Z"/>
  </g>
</svg>
