<?xml version="1.0" encoding="UTF-8"?>
<svg id="_Слой_2" data-name="Слой 2" xmlns="http://www.w3.org/2000/svg" viewBox="0 0 579.81 561.93">
  <defs>
    <style>
      .cls-1 {
        fill: #81a871;
      }
    </style>
  </defs>
  <g id="_Слой_1-2" data-name="Слой 1">
    <path class="cls-1" d="M3.91,214.87c-3.85,9.4-8.52,28.37,5.92,45.98,0,0-3.67.35-7.38.54-1.83.09-2.92,2.1-1.97,3.67,4.55,7.56,18.08,24.25,47.63,20.93l10.66-3.11c1.94-.57,3.82,1.03,3.59,3.03v.04c.14.15.24.35.24.6l.13,37.44,1.56,231.27c0,3.68,2.98,6.66,6.66,6.66h12.35c2.85,0,5.39-1.82,6.31-4.52l35.35-103.95.18-.63c.76-3.27,7.73-31.93,20.19-33.17,13.21-1.32,19.38,19.82,19.38,19.82l37.29,117.79c.88,2.77,3.45,4.65,6.35,4.65h13.14c3.67,0,6.65-2.97,6.66-6.64l.4-128.54c.01-3.67,2.99-6.64,6.66-6.64h35.25c2.86,0,5.41,1.83,6.32,4.54l44.52,132.74c.91,2.72,3.45,4.54,6.32,4.54h11.91c3.67,0,6.65-2.97,6.66-6.64l.4-129.44c.01-3.3,2.44-6.1,5.7-6.57l13.07-1.9c3.17-.46,6.22,1.4,7.26,4.44l46.44,135.61c.92,2.69,3.46,4.51,6.3,4.51h13.72c3.67,0,6.64-2.96,6.66-6.63l.84-159.48c0-.26-.04-.52-.05-.78-.83-32.64,11.56-35.42,25.59-65.24,14.09-29.95,14.54-60.34,14.54-60.34l.44-104.95-.03-.65c-2.46-24.76,14.13-23.02,14.13-23.02l71.86.4c3.66.02,6.65-2.91,6.7-6.57.07-5.08.08-13.19-.15-24.66-.38-18.86-11.53-22.92-14.34-23.64-.49-.13-.95-.3-1.4-.54l-67.94-35.25c-1.15-.6-2.11-1.53-2.74-2.66-13.16-23.33-23.4-35.9-25.18-38.02-.17-.21-.36-.4-.56-.59-17.94-16.58-40.35-6.98-49.18-2.08-2.25,1.25-5.04,1.1-7.09-.44-11.79-8.85-26.14-7.4-39.02-3.38-14.09,4.4-25.99,28.19-18.06,24.23,6.38-3.19,15.33-6.38,18.58-7.5.81-.28,1.67-.41,2.53-.35,23.83,1.67,19.75,19.49,17.85,25.11-.35,1.05-.96,1.98-1.77,2.73-35.59,32.86-65.29,66.44-78.76,82.21-3.56,4.16-.85,10.59,4.61,10.98,31.81,2.27,52.1-13.94,63.51-27.87,3.94-4.82,11.77-1.95,11.77,4.27v42.56c-2.92,61.8-67.6,73.72-74.32,74.79-.35.06-.7.08-1.06.08H115.97c-17.27,0-33.03,6.98-50.29,7.69-36.3,1.5-51.17-17.82-56.39-27.76-1.18-2.24-4.43-2.07-5.39.27ZM440.04,46.64s-9.75-14.78-17.34-26.34c0,0,11.34-4.42,19.56,3.19,2.72,2.52,4.44,5.92,5.22,9.55,1.14,5.32,1.52,13.66-7.43,13.61ZM487.64,117.99c.06,2.16-.06,3.53-.06,3.53-.01-1.23.01-2.39.06-3.53-.21-7.73-2.67-25.57-20.87-26.86,0,0,20.39-.83,20.64-32.84,0-.11,0-.19,0-.19,0,.07,0,.12,0,.19-.06,2.48-.31,31.38,18.5,31.85,0,0-17.18.78-18.27,27.85Z"/>
  </g>
</svg>